<?xml version="1.0" encoding="utf-8"?>
<!-- Generator: Adobe Illustrator 27.3.1, SVG Export Plug-In . SVG Version: 6.00 Build 0)  -->
<svg version="1.1" id="Layer_1" xmlns="http://www.w3.org/2000/svg" xmlns:xlink="http://www.w3.org/1999/xlink" x="0px" y="0px"
	 viewBox="0 0 145 123.6" style="enable-background:new 0 0 145 123.6;" xml:space="preserve">
<style type="text/css">
	.st0{fill:#FFFFFF;}
	.st1{fill:#2F78EB;}
</style>
<rect class="st0" width="145" height="123.6"/>
<path class="st1" d="M64.2,48.8H1.5v26h62.7V48.8z"/>
<path class="st0" d="M20.1,70.7h3.7V52.9h-3.9L14.1,63L8.5,52.9h-4v17.9h3.7V58.9l4.9,8.8h2l4.9-8.8V70.7z M33.1,52.9l-7.3,17.9h3.8
	l1.7-4.4h6.7l1.8,4.4h3.8l-7.2-17.9H33.1z M37.4,63.8H32l2.7-7L37.4,63.8z M47.7,52.9h-4l6.8,9.1l-6.6,8.8h4l4.5-6.4l4.5,6.4h4
	l-6.6-8.8l6.8-9.1h-4l-4.7,6.6L47.7,52.9z"/>
<path class="st1" d="M143.5,48.8H67.2v1.1h76.3V48.8z"/>
<path class="st1" d="M143.5,73.7H67.2v1.1h76.3V73.7z"/>
<path class="st1" d="M82.2,52.9h-1.9v7.9H69.1v-7.9h-1.9v17.9h1.9v-8.3h11.3v8.3h1.9V52.9z M85.7,61.8c0,2.6,1.1,4.8,2.5,6.2
	c1.4,1.5,3.6,2.8,6.5,2.8c2.8,0,5-1.3,6.4-2.7c1.4-1.5,2.6-3.7,2.6-6.3c0-2.6-1.1-4.7-2.5-6.2c-1.4-1.5-3.6-2.9-6.5-2.9
	c-2.8,0-5,1.3-6.4,2.7C86.9,57,85.7,59.2,85.7,61.8z M87.6,61.8c0-0.9,0.2-1.8,0.5-2.7c0.9-2.5,3-4.7,6.6-4.7c1,0,2,0.2,2.8,0.6
	c2.4,1.1,4.2,3.5,4.2,6.8c0,2.1-0.8,3.9-1.9,5.1c-1.1,1.3-2.8,2.4-5.2,2.4c-1.1,0-2-0.2-2.9-0.6C89.4,67.5,87.6,65.1,87.6,61.8z
	 M124,70.7h1.9V52.9H124l-7.5,12.2l-7.4-12.2h-1.9v17.9h1.9V56.1l6.9,11.3h1.1l7-11.3V70.7z M143.5,69.2h-10.9v-6.8h9.3v-1.5h-9.3
	v-6.4h10.7v-1.6h-12.6v17.9h12.8V69.2z"/>
</svg>
